<?xml version="1.0" standalone="no"?>
<svg xmlns="http://www.w3.org/2000/svg" viewBox="0 0 64.704 19.368000000000002" width="64.704" height="19.368000000000002"><path fill="#0b4e54" fill-rule="nonzero" d="M0.82 19.37Q0 18.91 0 18.12L0 18.12Q0 17.18 1.00 15.19Q1.99 13.20 3.65 10.61L3.65 10.61Q2.18 10.49 1.06 10.49L1.06 10.49L0.22 10.49Q0.67 9.24 2.71 9.24L2.71 9.24Q3.36 9.24 4.44 9.41L4.44 9.41Q6.29 6.62 8.20 4.16Q10.10 1.70 11.21 0.67L11.21 0.67Q11.90 0 12.36 0L12.36 0Q12.86 0 13.63 0.77L13.63 0.77Q13.15 1.15 12.24 3.88Q11.33 6.60 10.61 9.83Q9.89 13.06 9.89 15.02L9.89 15.02Q9.89 15.98 10.09 16.46Q10.30 16.94 10.78 16.94L10.78 16.94Q12.10 16.94 13.92 13.39L13.92 13.39L14.16 13.63Q13.42 15.60 12.30 16.80Q11.18 18 10.01 18L10.01 18Q9.05 18 8.59 17.15Q8.14 16.30 8.14 14.78L8.14 14.78Q8.14 13.25 8.54 11.21L8.54 11.21Q7.01 10.97 4.99 10.73L4.99 10.73Q2.64 15.05 0.82 19.37L0.82 19.37ZM8.71 10.37Q9.22 8.11 10.01 5.69Q10.80 3.26 11.59 1.51L11.59 1.51Q10.51 2.18 8.94 4.34Q7.37 6.50 5.62 9.62L5.62 9.62Q6.58 9.82 7.63 10.10L7.63 10.10L8.71 10.37ZM21.19 17.76Q20.38 17.76 19.94 17.34Q19.51 16.92 19.51 16.22L19.51 16.22Q19.51 15.91 19.62 15.49Q19.73 15.07 19.85 14.66L19.85 14.66Q19.99 14.23 20.10 13.75Q20.21 13.27 20.21 12.89L20.21 12.89Q20.21 11.71 19.25 11.71L19.25 11.71Q18.34 11.71 17.34 12.67Q16.34 13.63 15.56 14.81Q14.78 15.98 13.80 17.64L13.80 17.64Q13.39 17.64 13.06 17.51Q12.72 17.38 12.53 17.11L12.53 17.11Q12.53 16.99 12.84 16.25L12.84 16.25Q13.44 14.71 13.82 13.45Q14.21 12.19 14.23 11.21L14.23 11.21Q14.40 11.02 14.71 10.86Q15.02 10.70 15.34 10.70L15.34 10.70Q15.98 10.70 15.98 11.33L15.98 11.33Q15.98 11.69 15.77 12.59Q15.55 13.49 15.22 14.50L15.22 14.50Q16.37 12.72 17.66 11.50Q18.96 10.27 20.21 10.27L20.21 10.27Q21.10 10.27 21.54 10.91Q21.98 11.54 21.98 12.43L21.98 12.43Q21.98 12.96 21.85 13.44Q21.72 13.92 21.46 14.54L21.46 14.54Q21.24 15.07 21.12 15.46Q21 15.84 21 16.22L21 16.22Q21 17.14 21.72 17.14L21.72 17.14Q22.54 17.14 23.41 16.06Q24.29 14.98 25.08 13.39L25.08 13.39L25.34 13.70Q23.62 17.76 21.19 17.76L21.19 17.76ZM29.23 6.91Q28.80 6.91 28.52 6.71Q28.25 6.50 28.25 6.12L28.25 6.12Q28.25 5.64 28.82 5.26Q29.40 4.87 30.00 4.87L30.00 4.87Q30.79 4.87 30.79 5.62L30.79 5.62Q30.79 6.07 30.30 6.49Q29.81 6.91 29.23 6.91L29.23 6.91ZM26.35 17.90Q25.46 17.90 24.98 17.34Q24.50 16.78 24.50 15.89L24.50 15.89Q24.50 14.95 25.04 13.30Q25.58 11.64 26.39 10.39Q27.19 9.14 27.96 9.14L27.96 9.14Q28.18 9.14 28.33 9.29Q28.49 9.43 28.49 9.67L28.49 9.67Q28.49 10.01 27.72 11.28L27.72 11.28Q26.93 12.60 26.46 13.64Q25.99 14.69 25.99 15.62L25.99 15.62Q25.99 16.46 26.27 16.76Q26.54 17.06 27.17 17.06L27.17 17.06Q29.04 17.06 30.86 13.39L30.86 13.39L31.08 13.63Q30.41 15.65 29.10 16.78Q27.79 17.90 26.35 17.90L26.35 17.90ZM42.50 18.02Q41.71 18.02 41.30 17.53Q40.90 17.04 40.90 16.27L40.90 16.27Q40.90 15.62 41.28 14.38L41.28 14.38Q41.40 13.97 41.51 13.56Q41.62 13.15 41.62 12.86L41.62 12.86Q41.62 12.43 41.41 12.22Q41.21 12 40.92 12L40.92 12Q40.37 12 39.73 12.78Q39.10 13.56 37.78 15.58L37.78 15.58Q37.44 16.10 36.84 17.35L36.84 17.35L36.62 17.81Q36.24 17.81 35.82 17.68Q35.40 17.54 35.40 17.33L35.40 17.33Q35.40 17.16 35.81 16.06L35.81 16.06Q36.31 14.57 36.61 13.55Q36.91 12.53 36.91 11.81L36.91 11.81Q36.91 10.90 36.31 10.90L36.31 10.90Q35.64 10.90 34.57 11.98Q33.50 13.06 32.47 14.70Q31.44 16.34 30.86 17.93L30.86 17.93Q30.50 17.93 30.04 17.76Q29.57 17.59 29.57 17.42L29.57 17.42Q29.57 17.35 29.90 16.30L29.90 16.30Q30.46 14.69 30.83 13.34Q31.20 12 31.22 11.02L31.22 11.02Q31.39 10.82 31.70 10.67Q32.02 10.51 32.33 10.51L32.33 10.51Q32.98 10.51 32.98 11.14L32.98 11.14Q32.98 11.78 32.35 13.87L32.35 13.87Q33.53 12 34.88 10.66Q36.24 9.31 37.42 9.31L37.42 9.31Q38.11 9.31 38.41 9.82Q38.71 10.32 38.71 11.14L38.71 11.14Q38.71 11.95 38.47 12.91Q38.23 13.87 37.97 14.52L37.97 14.52Q38.88 12.86 39.86 11.84Q40.85 10.82 41.95 10.82L41.95 10.82Q42.67 10.82 43.00 11.26Q43.32 11.69 43.32 12.36L43.32 12.36Q43.32 12.82 43.20 13.33Q43.08 13.85 42.84 14.59L42.84 14.59Q42.43 15.86 42.43 16.37L42.43 16.37Q42.43 17.18 43.15 17.18L43.15 17.18Q44.04 17.18 44.83 16.09Q45.62 15 46.37 13.39L46.37 13.39L46.66 13.73Q45.98 15.50 44.90 16.76Q43.82 18.02 42.50 18.02L42.50 18.02ZM47.06 18.41Q46.27 18.41 45.78 17.89Q45.29 17.38 45.29 16.42L45.29 16.42Q45.29 15 46.31 13.25Q47.33 11.50 48.89 10.27Q50.45 9.05 51.94 9.05L51.94 9.05Q52.87 9.05 53.50 9.55Q54.12 10.06 54.12 10.85L54.12 10.85Q54.12 11.40 53.81 11.64Q53.50 11.88 52.94 11.88L52.94 11.88Q53.06 11.45 53.06 11.04L53.06 11.04Q53.06 10.44 52.78 10.07Q52.49 9.70 51.89 9.70L51.89 9.70Q50.83 9.70 49.67 10.87Q48.50 12.05 47.72 13.68Q46.94 15.31 46.94 16.49L46.94 16.49Q46.94 17.42 47.59 17.42L47.59 17.42Q48.55 17.42 49.85 15.90Q51.14 14.38 52.63 12.19L52.63 12.19Q52.94 12.24 53.27 12.40Q53.59 12.55 53.59 12.79L53.59 12.79Q53.59 12.98 53.36 13.40Q53.14 13.82 53.09 13.90L53.09 13.90Q52.68 14.59 52.44 15.13Q52.20 15.67 52.20 16.13L52.20 16.13Q52.20 16.54 52.40 16.86Q52.61 17.18 53.02 17.18L53.02 17.18Q53.71 17.18 54.77 16.19Q55.82 15.19 56.86 13.39L56.86 13.39L57.10 13.63Q56.59 14.90 55.80 15.90Q55.01 16.90 54.10 17.45Q53.18 18 52.34 18L52.34 18Q51.50 18 51.06 17.51Q50.62 17.02 50.62 16.32L50.62 16.32Q50.62 16.01 50.69 15.62L50.69 15.62Q49.61 17.06 48.76 17.74Q47.90 18.41 47.06 18.41L47.06 18.41ZM58.37 18Q57.38 18 56.92 17.33Q56.45 16.66 56.45 15.53L56.45 15.53Q56.45 13.37 57.94 9.66Q59.42 5.95 61.26 2.98Q63.10 0 63.91 0L63.91 0Q64.25 0 64.48 0.59Q64.70 1.18 64.70 1.78L64.70 1.78Q64.70 2.88 63.80 5.03Q62.90 7.18 61.44 9.38Q59.98 11.59 58.32 12.96L58.32 12.96Q58.01 14.35 58.01 15.38L58.01 15.38Q58.01 17.23 59.06 17.23L59.06 17.23Q59.95 17.23 60.88 16.10Q61.80 14.98 62.52 13.39L62.52 13.39L62.88 13.58Q60.82 18 58.37 18L58.37 18ZM58.54 12.14Q59.86 10.82 61.12 8.82Q62.38 6.82 63.17 4.98Q63.96 3.14 63.96 2.33L63.96 2.33Q63.96 1.94 63.79 1.94L63.79 1.94Q63.46 1.94 62.41 3.59Q61.37 5.23 60.26 7.61Q59.16 9.98 58.54 12.14L58.54 12.14Z"></path></svg>